<?xml version="1.0" encoding="utf-8"?><svg viewBox="0 0 426 426" xmlns="http://www.w3.org/2000/svg" xmlns:xlink="http://www.w3.org/1999/xlink"><style>:root>svg{display:none}:root>svg:target{display:block}</style><svg viewBox="0 0 426 426" id="favicon" xmlns="http://www.w3.org/2000/svg"><path d="M0 0h426v426H0z"/><path d="M94.572 158.444h90.909v15.002h-36.155v93.258h-16.861v-93.258H94.572v-15.002zM226.525 153.185h-21.059l44.953 58.745 8.136-17.385-32.03-41.36zM271.446 211.352l-10.391 14.184 29.999 39.744 22.406.324-42.014-54.252z"/><path d="M330.201 162.2c5.073-21.205 4.565-51.674-45.655 0-49.478 50.909-75.026 103.061-79.897 125.269 31.388-57.741 49.65-82.404 84.652-118.419 37.095-38.168 40.9-19.573 40.9-6.85z"/></svg><svg viewBox="0 0 19 18" id="telegram" xmlns="http://www.w3.org/2000/svg"><path fill-rule="evenodd" clip-rule="evenodd" d="M3.136 2.636A8.972 8.972 0 019.5 0a8.972 8.972 0 016.364 2.636A8.972 8.972 0 0118.5 9a8.971 8.971 0 01-2.636 6.364A8.972 8.972 0 019.5 18a8.972 8.972 0 01-6.364-2.636A8.971 8.971 0 01.5 9a8.972 8.972 0 012.636-6.364zm6.421 3.645a433.48 433.48 0 00-5.37 2.361c-.435.177-.664.35-.685.52-.035.286.316.399.794.552.065.02.132.043.201.066.47.156 1.103.338 1.432.345.298.007.63-.119.998-.376 2.508-1.729 3.803-2.603 3.885-2.621.057-.014.136-.03.19.018.054.05.049.142.043.167-.035.151-1.412 1.459-2.125 2.135-.222.211-.38.36-.412.395-.072.077-.146.149-.217.219-.437.43-.764.752.018 1.278.376.253.677.463.977.671.328.228.655.456 1.078.739.108.072.211.147.311.22.382.277.725.527 1.148.487.246-.023.5-.26.63-.964.304-1.665.904-5.272 1.043-6.76a1.7 1.7 0 00-.016-.37.399.399 0 00-.13-.254.597.597 0 00-.358-.11c-.346.007-.877.196-3.435 1.282z"/></svg><svg viewBox="0 0 15 18" id="tonviewer" xmlns="http://www.w3.org/2000/svg"><path d="M2.1 9L7.5.6 12.9 9l-5.4 8.4L2.1 9z"/><path d="M7.5 17.4V9H3.3l4.2 8.4z"/><path d="M7.5 17.4V9h4.2l-4.2 8.4zM7.5 9V.6L3.3 9h4.2zM7.5 9V.6L11.7 9H7.5z"/><path d="M7.5 17.4L.3 9h3.6l3.6 8.4zM.3 9L7.5.6 3.9 9H.3z"/><path d="M14.7 9l-7.2 8.4L11.1 9h3.6zM7.5.6L14.7 9h-3.6L7.5.6z"/></svg></svg>